<?xml version="1.0" encoding="utf-8"?>
<!-- Generator: Adobe Illustrator 19.0.0, SVG Export Plug-In . SVG Version: 6.00 Build 0)  -->
<svg version="1.1" id="Layer_1" xmlns="http://www.w3.org/2000/svg" xmlns:xlink="http://www.w3.org/1999/xlink" x="0px" y="0px"
	 viewBox="0 0 255.8 335" style="enable-background:new 0 0 255.8 335;" xml:space="preserve">
<style type="text/css">
	.st0{fill:#595959;}
	.st1{fill:#FFFFFF;}
</style>
<g>
	<path class="st0" d="M200.2,111.6c0.4,19.6-8.8,35.8-18.1,52.1c-10.5,18.5-21.5,36.8-30.6,55.9c-9.4,19.7-14.1,41.1-15.9,63
		c-0.3,3.4-0.7,7.2-5.7,7.3c-5.2,0.1-5.6-3.4-6-7.3c-3.6-36.1-15.7-69.2-35-99.8c-6.7-10.7-13.3-21.5-19.3-32.6
		c-11.8-21.7-14.7-44.3-4.9-67.7c11.8-28.1,43.2-45.9,73.2-41.6c32.7,4.7,55.1,25.8,61.2,58.2C200,103.2,199.9,107.4,200.2,111.6z
		 M129.8,80.3c-19.1,1-31.7,14.3-30.7,32.5c1,17.4,14.8,29.8,32.2,29.1c18.6-0.7,29.9-15.6,29.6-30.7
		C160.3,93.1,146.1,79.4,129.8,80.3z"/>
	<path class="st1" d="M129.8,80.3c16.4-0.9,30.5,12.8,31,30.9c0.4,15.1-11,29.9-29.6,30.7c-17.3,0.7-31.2-11.7-32.2-29.1
		C98,94.6,110.6,81.3,129.8,80.3z"/>
</g>
</svg>
